<svg width="356" height="356" viewBox="0 0 356 356" fill="none" xmlns="http://www.w3.org/2000/svg">
<path d="M178 356C276.307 356 356 276.307 356 178C356 79.6933 276.307 0 178 0C79.6933 0 0 79.6933 0 178C0 276.307 79.6933 356 178 356Z" fill="#9C27B0" fill-opacity="0.28"/>
<path d="M178 302C246.483 302 302 246.483 302 178C302 109.517 246.483 54 178 54C109.517 54 54 109.517 54 178C54 246.483 109.517 302 178 302Z" fill="#9C27B0"/>
<path d="M151.727 136.75C149.479 136.75 147.98 139 147.98 140.5V159.25H140.485V140.5C140.485 138.25 138.986 136.75 136.737 136.75C134.489 136.75 132.99 139 132.99 140.5V159.25H125.495V140.5C125.495 138.25 123.996 136.75 121.747 136.75C119.499 136.75 118 139 118 140.5V165.25C118 172 123.246 177.25 129.242 178V230.5C129.242 235 132.24 238 136.737 238C141.234 238 144.232 235 144.232 230.5V178C150.228 177.25 155.475 172 155.475 165.25V140.5C155.475 139 153.976 136.75 151.727 136.75ZM166.717 140.5V185.5H174.212V230.5C174.212 235 177.21 238 181.707 238C186.204 238 189.202 235 189.202 230.5V118C176.46 118 166.717 127.75 166.717 140.5ZM219.182 133C208.689 133 200.444 144.25 200.444 157.75C199.695 166.75 204.192 175 211.687 180.25V230.5C211.687 235 214.685 238 219.182 238C223.678 238 226.676 235 226.676 230.5V180.25C234.171 175 238.668 166.75 237.919 157.75C237.919 144.25 229.674 133 219.182 133Z" fill="white"/>
</svg>
