<svg width="356" height="356" viewBox="0 0 356 356" fill="none" xmlns="http://www.w3.org/2000/svg">
<path d="M178 356C276.307 356 356 276.307 356 178C356 79.6933 276.307 0 178 0C79.6933 0 0 79.6933 0 178C0 276.307 79.6933 356 178 356Z" fill="#9C27B0" fill-opacity="0.28"/>
<path d="M178 302C246.483 302 302 246.483 302 178C302 109.517 246.483 54 178 54C109.517 54 54 109.517 54 178C54 246.483 109.517 302 178 302Z" fill="#9C27B0"/>
<path d="M238.417 134.375C240.396 134.375 242 132.767 242 130.781V123.594C242 121.608 240.396 120 238.417 120H116.583C114.604 120 113 121.608 113 123.594V130.781C113 132.767 114.604 134.375 116.583 134.375H120.162V220.625H116.583C114.604 220.625 113 222.233 113 224.219V231.406C113 233.392 114.604 235 116.583 235H170.333V217.031C170.333 215.055 171.946 213.438 173.917 213.438H181.083C183.054 213.438 184.667 215.055 184.667 217.031V235H238.417C240.396 235 242 233.392 242 231.406V224.219C242 222.233 240.396 220.625 238.417 220.625H234.833V134.375H238.417ZM170.333 144.438C170.333 143 171.767 141.562 173.2 141.562H181.8C183.233 141.562 184.667 143 184.667 144.438V153.062C184.667 154.5 183.233 155.938 181.8 155.938H173.2C171.767 155.938 170.333 154.5 170.333 153.062V144.438ZM170.333 166C170.333 164.563 171.767 163.125 173.2 163.125H181.8C183.233 163.125 184.667 164.563 184.667 166V174.625C184.667 176.062 183.233 177.5 181.8 177.5H173.2C171.767 177.5 170.333 176.062 170.333 174.625V166ZM141.667 144.438C141.667 143 143.1 141.562 144.533 141.562H153.133C154.567 141.562 156 143 156 144.438V153.062C156 154.5 154.567 155.938 153.133 155.938H144.533C143.1 155.938 141.667 154.5 141.667 153.062V144.438ZM153.133 177.5H144.533C143.1 177.5 141.667 176.062 141.667 174.625V166C141.667 164.563 143.1 163.125 144.533 163.125H153.133C154.567 163.125 156 164.563 156 166V174.625C156 176.062 154.567 177.5 153.133 177.5ZM156 206.25C156 194.341 165.626 184.688 177.5 184.688C189.374 184.688 199 194.341 199 206.25H156ZM213.333 174.625C213.333 176.062 211.9 177.5 210.467 177.5H201.867C200.433 177.5 199 176.062 199 174.625V166C199 164.563 200.433 163.125 201.867 163.125H210.467C211.9 163.125 213.333 164.563 213.333 166V174.625ZM213.333 153.062C213.333 154.5 211.9 155.938 210.467 155.938H201.867C200.433 155.938 199 154.5 199 153.062V144.438C199 143 200.433 141.562 201.867 141.562H210.467C211.9 141.562 213.333 143 213.333 144.438V153.062Z" fill="white"/>
</svg>
