<svg width="356" height="356" viewBox="0 0 356 356" fill="none" xmlns="http://www.w3.org/2000/svg">
<path d="M178 356C276.307 356 356 276.307 356 178C356 79.6933 276.307 0 178 0C79.6933 0 0 79.6933 0 178C0 276.307 79.6933 356 178 356Z" fill="#9C27B0" fill-opacity="0.28"/>
<path d="M178 302C246.483 302 302 246.483 302 178C302 109.517 246.483 54 178 54C109.517 54 54 109.517 54 178C54 246.483 109.517 302 178 302Z" fill="#9C27B0"/>
<path d="M200.909 223.818L241 241V166.546L209.5 152.228L143.636 160.818L115 149.364V223.818L155.091 241L200.909 223.818ZM200.909 223.818L155.091 241L200.909 223.818ZM200.909 223.818V183.728V223.818ZM155.091 241V183.728V241ZM178 208.2C178 208.2 143.636 180.864 143.636 155.091C143.636 133.614 160.818 120.728 178 120.728C195.182 120.728 212.364 133.614 212.364 155.091C212.364 180.864 178 208.2 178 208.2ZM183.727 155.091C183.727 153.572 183.124 152.115 182.05 151.041C180.976 149.967 179.519 149.364 178 149.364C176.481 149.364 175.024 149.967 173.95 151.041C172.876 152.115 172.273 153.572 172.273 155.091C172.273 156.61 172.876 158.067 173.95 159.141C175.024 160.215 176.481 160.818 178 160.818C179.519 160.818 180.976 160.215 182.05 159.141C183.124 158.067 183.727 156.61 183.727 155.091Z" stroke="white" stroke-width="2"/>
<path fill-rule="evenodd" clip-rule="evenodd" d="M175.573 211.962L178 207.81L175.573 211.962ZM178 207.81L180.423 211.962C178.937 212.939 177.054 212.939 175.573 211.962L175.559 211.957L175.531 211.938L175.439 211.874C174.953 211.551 174.474 211.215 174.004 210.868C172.682 209.906 171.388 208.902 170.122 207.859C165.934 204.416 162.027 200.605 158.442 196.468C150.001 186.693 141.08 172.127 141.08 154.078C141.08 131.906 157.657 115 178 115C198.343 115 214.92 131.906 214.92 154.078C214.92 172.127 205.999 186.693 197.558 196.468C193.975 200.605 190.069 204.415 185.882 207.859C184.259 209.192 182.589 210.46 180.875 211.659C180.771 211.732 180.666 211.803 180.561 211.874L180.469 211.938L180.441 211.957H180.432C180.432 211.962 180.423 211.967 178 207.81ZM164.155 154.078C164.155 150.191 165.614 146.464 168.21 143.716C170.807 140.968 174.328 139.424 178 139.424C181.672 139.424 185.193 140.968 187.79 143.716C190.386 146.464 191.845 150.191 191.845 154.078C191.845 157.965 190.386 161.692 187.79 164.44C185.193 167.188 181.672 168.732 178 168.732C174.328 168.732 170.807 167.188 168.21 164.44C165.614 161.692 164.155 157.965 164.155 154.078Z" fill="white"/>
</svg>
